# xmcd CD database file
#
# Track frame offsets:
#	150
#	14196
#	27494
#	37522
#	49090
#	66447
#	80846
#	93258
#	104771
#	117210
#	128374
#	142692
#	153396
#	164049
#	184388
#	197537
#	212159
#	226861
#	246326
#	260574
#	278999
#	293347
#
# Disc length: 4127 seconds
#
# Revision: 0
# Processed by: cddbd v1.5.2PL0 Copyright (c) Steve Scherf et al.
# Submitted via: ACXtractor (MTCDDB.DLL V2003.07.15)
#
DISCID=3d101d16
DTITLE=Mixed - Older Artists
DYEAR=2003
DGENRE=Country
TTITLE0=Crazy Love - Barbara Fairchild
TTITLE1=Daddy - Donna Fargo
TTITLE2=Sticks and Stones - Donna Fargo
TTITLE3=Wishful Thinking - Donna Fargo
TTITLE4=If You Could Read my Mind - Gorden Lightfoot
TTITLE5=Come Monday - Jimmy Buffet
TTITLE6=Luckinback Texas - Roy Dusky
TTITLE7=The Last Letter - Roy Dusky
TTITLE8=Ol' Blue - Stonewall Jackson
TTITLE9=Should I Go Home - Stonewall Jackson
TTITLE10=Keep off the Grass - Stonewall Jackson
TTITLE11=If You Ain't Lovin - Faron Young
TTITLE12=Mr Sandman - Dolly Parton, Linda Ronstadt
TTITLE13=Wand'rin Star - Lee Marvin
TTITLE14=Let me into Your Heart - Mary Carpenter
TTITLE15=Hurrican - Cartene Carter
TTITLE16=Why Didn't I think of That - Doug Stone
TTITLE17=The Dream - John and Audrey Wiggan
TTITLE18=She Ain't no Ordinary Girl - Alabama
TTITLE19=Long Tall Texan - Beach Boys
TTITLE20=Back to Salome - John Laws
TTITLE21=Tenterfield Saddler/ Peter Allen
EXTD=ID3G:   2 YEAR: 2003
EXTT0=
EXTT1=
EXTT2=
EXTT3=
EXTT4=
EXTT5=
EXTT6=
EXTT7=
EXTT8=
EXTT9=
EXTT10=
EXTT11=
EXTT12=
EXTT13=
EXTT14=
EXTT15=
EXTT16=
EXTT17=
EXTT18=
EXTT19=
EXTT20=
EXTT21=
PLAYORDER=
